<svg viewBox="0 0 27 12" xmlns="http://www.w3.org/2000/svg">
	<text x=".3" y="11" textLength="26.5" font-family="monospace" font-size="14" fill="#00000001">404</text>
	<path d="M17.5 4A1 1 0 0 0 9.5 4V8A1 1 0 0 0 17.5 8M12 8A1 1 0 0 0 15 8V4A1 1 0 0 0 12 4ZM5 6A2 2 0 0 1 3 4H0.5A4.5 4.5 0 0 0 5 8.5M3 3V0.5A2.5 2.5 0 0 0 0.5 3M8.5 2.5A2.5 2.5 0 0 0 6 0.5V11.5H8.5M23 6A2 2 0 0 1 21 4H18.5A4.5 4.5 0 0 0 23 8.5M21 3V0.5A2.5 2.5 0 0 0 18.5 3M26.5 2.5A2.5 2.5 0 0 0 24 0.5V11.5H26.5" fill="currentColor" fill-rule="evenodd"/>
</svg>
