<svg viewBox="0 0 14 14" xmlns="http://www.w3.org/2000/svg">
	<path d="M11.86 2.63c-.92-.42-1.9-.71-2.89-.88a7.3 7.3 0 0 0-.37.74 10.87 10.87 0 0 0-3.2 0c-.11-.25-.24-.5-.37-.74-1 .17-1.97.46-2.9.88A11.46 11.46 0 0 0 .07 10.5c1.07.78 2.27 1.38 3.54 1.76.29-.38.54-.79.76-1.21a7.57 7.57 0 0 1-1.2-.57l.3-.21a8.4 8.4 0 0 0 7.08 0l.3.21a7.6 7.6 0 0 1-1.2.57c.22.42.47.83.76 1.21 1.27-.38 2.47-.98 3.54-1.76.3-2.98-.5-5.57-2.08-7.86ZM4.67 8.9c-.69 0-1.26-.62-1.26-1.38 0-.77.55-1.4 1.26-1.4s1.28.63 1.26 1.4c0 .76-.55 1.38-1.26 1.38Zm4.66 0c-.7 0-1.26-.62-1.26-1.38 0-.77.55-1.4 1.26-1.4.7 0 1.27.63 1.25 1.4 0 .76-.55 1.38-1.25 1.38Z" fill="currentColor"/>
</svg>
