<svg xmlns="http://www.w3.org/2000/svg" viewBox="0 0 20 20">
	<path d="M5.5 1H7.5L8 2.5L9 3L10.3 2.6L11.5 4.5L10.5 5.5V6.5L11.5 7.5L10.3 9.4L9 9L8 9.5L7.5 11H5.5L5 9.5L4 9L2.7 9.4L1.5 7.5L2.5 6.5V5.5L1.5 4.5L2.7 2.6L4 3L5 2.5ZM6.5 4A1 1 0 0 0 6.5 8A1 1 0 0 0 6.5 4" fill="#6f7fb1"/>
	<path d="M12 8.5H14L14.5 10L15.25 10.5L16.75 10L18 11.75L16.75 13V14L18 15.25L16.75 17L15.25 16.5L14.5 17L14 18.5H12L11.5 17L10.75 16.5L9.25 17L8 15.25L9.25 14V13L8 11.75L9.25 10L10.75 10.5L11.5 10ZM13 12A1 1 0 0 0 13 15A1 1 0 0 0 13 12Z" fill="none" stroke="#6f7fb1" stroke-width=".5" stroke-linejoin="round"/>
</svg>
